# Blender v2.80 (sub 43) OBJ File: 'double.blend'
# www.blender.org
mtllib doubleg.mtl
o Top_Cube.001
v 0.000000 2.000000 -1.414214
v 0.000000 0.000000 -1.414214
v 1.414214 2.000000 0.000000
v 1.414214 0.000000 0.000000
v -1.414214 2.000000 0.000000
v -1.414214 0.000000 0.000000
v 0.000000 2.000000 1.414214
v 0.000000 0.000000 1.414214
vt 0.375000 0.000000
vt 0.625000 0.000000
vt 0.625000 0.250000
vt 0.375000 0.250000
vt 0.375000 0.250000
vt 0.625000 0.250000
vt 0.625000 0.500000
vt 0.375000 0.500000
vt 0.625000 0.750000
vt 0.375000 0.750000
vt 0.625000 0.750000
vt 0.625000 1.000000
vt 0.375000 1.000000
vt 0.125000 0.500000
vt 0.375000 0.500000
vt 0.375000 0.750000
vt 0.125000 0.750000
vt 0.625000 0.500000
vt 0.875000 0.500000
vt 0.875000 0.750000
vn 0.0000 1.0000 0.0000
vn 0.7071 0.0000 0.7071
vn -0.7071 0.0000 0.7071
vn 0.0000 -1.0000 0.0000
vn 0.7071 0.0000 -0.7071
vn -0.7071 0.0000 -0.7071
usemtl TopMaterial
s off
f 1/1/1 5/2/1 7/3/1 3/4/1
f 4/5/2 3/6/2 7/7/2 8/8/2
f 8/8/3 7/7/3 5/9/3 6/10/3
f 6/10/4 2/11/4 4/12/4 8/13/4
f 2/14/5 1/15/5 3/16/5 4/17/5
f 6/18/6 5/19/6 1/20/6 2/11/6
o Sphere
v 0.000000 -0.000000 -1.000000
v -0.000000 1.000000 -0.000000
v 0.270598 0.923880 -0.270598
v 0.500000 0.707107 -0.500000
v 0.653281 0.382683 -0.653282
v 0.707107 -0.000000 -0.707107
v 0.653281 -0.382684 -0.653282
v 0.500000 -0.707107 -0.500000
v 0.270598 -0.923880 -0.270598
v 0.382683 0.923880 -0.000000
v 0.707107 0.707107 -0.000000
v 0.923879 0.382683 -0.000000
v 1.000000 -0.000000 -0.000000
v 0.923879 -0.382684 -0.000000
v 0.707107 -0.707107 -0.000000
v 0.382683 -0.923880 -0.000000
v 0.000000 -1.000000 -0.000000
v 0.270598 0.923880 0.270598
v 0.500000 0.707107 0.500000
v 0.653281 0.382683 0.653281
v 0.707107 -0.000000 0.707106
v 0.653281 -0.382684 0.653281
v 0.500000 -0.707107 0.500000
v 0.270598 -0.923880 0.270598
v 0.000000 0.923880 0.382683
v 0.000000 0.707107 0.707106
v 0.000000 0.382683 0.923879
v 0.000000 -0.000000 1.000000
v 0.000000 -0.382684 0.923879
v 0.000000 -0.707107 0.707106
v 0.000000 -0.923880 0.382683
v -0.270598 0.923880 0.270598
v -0.500000 0.707107 0.500000
v -0.653281 0.382683 0.653281
v -0.707107 -0.000000 0.707106
v -0.653281 -0.382684 0.653281
v -0.500000 -0.707107 0.500000
v -0.270598 -0.923880 0.270598
v -0.382683 0.923880 -0.000000
v -0.707107 0.707107 -0.000000
v -0.923879 0.382683 -0.000000
v -1.000000 -0.000000 -0.000000
v -0.923879 -0.382684 -0.000000
v -0.707107 -0.707107 -0.000000
v -0.382683 -0.923880 -0.000000
v -0.270598 0.923880 -0.270598
v -0.500000 0.707107 -0.500000
v -0.653281 0.382683 -0.653281
v -0.707107 -0.000000 -0.707107
v -0.653281 -0.382684 -0.653281
v -0.500000 -0.707107 -0.500000
v -0.270598 -0.923880 -0.270598
v -0.000000 0.923880 -0.382683
v -0.000000 0.707107 -0.707107
v -0.000000 0.382683 -0.923879
v -0.000000 -0.382684 -0.923879
v -0.000000 -0.707107 -0.707107
v -0.000000 -0.923880 -0.382683
vt 0.750000 0.500000
vt 0.750000 0.625000
vt 0.625000 0.625000
vt 0.625000 0.500000
vt 0.750000 0.750000
vt 0.750000 0.875000
vt 0.625000 0.875000
vt 0.625000 0.750000
vt 0.750000 0.125000
vt 0.750000 0.250000
vt 0.625000 0.250000
vt 0.625000 0.125000
vt 0.750000 0.375000
vt 0.625000 0.375000
vt 0.687500 1.000000
vt 0.687500 0.000000
vt 0.500000 0.250000
vt 0.500000 0.125000
vt 0.500000 0.500000
vt 0.500000 0.375000
vt 0.500000 0.750000
vt 0.500000 0.625000
vt 0.562500 1.000000
vt 0.500000 0.875000
vt 0.562500 0.000000
vt 0.437500 1.000000
vt 0.375000 0.875000
vt 0.437500 0.000000
vt 0.375000 0.125000
vt 0.375000 0.375000
vt 0.375000 0.250000
vt 0.375000 0.625000
vt 0.375000 0.500000
vt 0.375000 0.750000
vt 0.250000 0.375000
vt 0.250000 0.250000
vt 0.250000 0.625000
vt 0.250000 0.500000
vt 0.250000 0.875000
vt 0.250000 0.750000
vt 0.250000 0.125000
vt 0.312500 1.000000
vt 0.312500 0.000000
vt 0.125000 0.250000
vt 0.125000 0.125000
vt 0.125000 0.500000
vt 0.125000 0.375000
vt 0.125000 0.750000
vt 0.125000 0.625000
vt 0.187500 1.000000
vt 0.125000 0.875000
vt 0.187500 0.000000
vt 0.000000 0.500000
vt 0.000000 0.375000
vt 0.000000 0.750000
vt 0.000000 0.625000
vt 0.062500 1.000000
vt 0.000000 0.875000
vt 0.062500 0.000000
vt 0.000000 0.125000
vt 0.000000 0.250000
vt 0.937500 0.000000
vt 1.000000 0.125000
vt 0.875000 0.125000
vt 1.000000 0.250000
vt 1.000000 0.375000
vt 0.875000 0.375000
vt 0.875000 0.250000
vt 1.000000 0.500000
vt 1.000000 0.625000
vt 0.875000 0.625000
vt 0.875000 0.500000
vt 1.000000 0.750000
vt 1.000000 0.875000
vt 0.875000 0.875000
vt 0.875000 0.750000
vt 0.937500 1.000000
vt 0.812500 1.000000
vt 0.812500 0.000000
vn 0.3764 0.1807 -0.9087
vn 0.2243 0.8103 -0.5414
vn 0.2243 -0.8103 -0.5414
vn 0.3764 -0.1807 -0.9087
vn 0.3256 0.5253 -0.7862
vn 0.0805 0.9776 -0.1945
vn 0.0805 -0.9776 -0.1945
vn 0.3256 -0.5253 -0.7862
vn 0.5414 -0.8103 -0.2243
vn 0.9087 -0.1807 -0.3764
vn 0.7862 0.5253 -0.3256
vn 0.1945 0.9776 -0.0805
vn 0.1945 -0.9776 -0.0805
vn 0.7862 -0.5253 -0.3256
vn 0.9087 0.1807 -0.3764
vn 0.5414 0.8103 -0.2243
vn 0.1945 0.9776 0.0805
vn 0.1945 -0.9776 0.0805
vn 0.7862 -0.5253 0.3256
vn 0.9087 0.1807 0.3764
vn 0.5414 0.8103 0.2243
vn 0.5414 -0.8103 0.2243
vn 0.9087 -0.1807 0.3764
vn 0.7862 0.5253 0.3256
vn 0.3256 -0.5253 0.7862
vn 0.3764 0.1807 0.9087
vn 0.2243 0.8103 0.5414
vn 0.2243 -0.8103 0.5414
vn 0.3764 -0.1807 0.9087
vn 0.3256 0.5253 0.7862
vn 0.0805 0.9776 0.1945
vn 0.0805 -0.9776 0.1945
vn -0.2243 -0.8103 0.5414
vn -0.3764 -0.1807 0.9087
vn -0.3256 0.5253 0.7862
vn -0.0805 0.9776 0.1945
vn -0.0805 -0.9776 0.1945
vn -0.3256 -0.5253 0.7862
vn -0.3764 0.1807 0.9087
vn -0.2243 0.8103 0.5414
vn -0.9087 -0.1807 0.3764
vn -0.7862 0.5253 0.3256
vn -0.1945 0.9776 0.0805
vn -0.1945 -0.9776 0.0805
vn -0.7862 -0.5253 0.3256
vn -0.9087 0.1807 0.3764
vn -0.5414 0.8103 0.2243
vn -0.5414 -0.8103 0.2243
vn -0.1945 -0.9776 -0.0805
vn -0.7862 -0.5253 -0.3256
vn -0.9087 0.1807 -0.3764
vn -0.5414 0.8103 -0.2243
vn -0.5414 -0.8103 -0.2243
vn -0.9087 -0.1807 -0.3764
vn -0.7862 0.5253 -0.3256
vn -0.1945 0.9776 -0.0805
vn -0.3764 0.1807 -0.9087
vn -0.2243 0.8103 -0.5414
vn -0.2243 -0.8103 -0.5414
vn -0.3764 -0.1807 -0.9087
vn -0.3256 0.5253 -0.7862
vn -0.0805 0.9776 -0.1945
vn -0.0805 -0.9776 -0.1945
vn -0.3256 -0.5253 -0.7862
usemtl BottomMaterial
s off
f 9/21/7 63/22/7 13/23/7 14/24/7
f 62/25/8 61/26/8 11/27/8 12/28/8
f 66/29/9 65/30/9 16/31/9 17/32/9
f 64/33/10 9/21/10 14/24/10 15/34/10
f 63/22/11 62/25/11 12/28/11 13/23/11
f 61/26/12 10/35/12 11/27/12
f 25/36/13 66/29/13 17/32/13
f 65/30/14 64/33/14 15/34/14 16/31/14
f 17/32/15 16/31/15 23/37/15 24/38/15
f 15/34/16 14/24/16 21/39/16 22/40/16
f 13/23/17 12/28/17 19/41/17 20/42/17
f 11/27/18 10/43/18 18/44/18
f 25/45/19 17/32/19 24/38/19
f 16/31/20 15/34/20 22/40/20 23/37/20
f 14/24/21 13/23/21 20/42/21 21/39/21
f 12/28/22 11/27/22 18/44/22 19/41/22
f 18/44/23 10/46/23 26/47/23
f 25/48/24 24/38/24 32/49/24
f 23/37/25 22/40/25 30/50/25 31/51/25
f 21/39/26 20/42/26 28/52/26 29/53/26
f 19/41/27 18/44/27 26/47/27 27/54/27
f 24/38/28 23/37/28 31/51/28 32/49/28
f 22/40/29 21/39/29 29/53/29 30/50/29
f 20/42/30 19/41/30 27/54/30 28/52/30
f 31/51/31 30/50/31 37/55/31 38/56/31
f 29/53/32 28/52/32 35/57/32 36/58/32
f 27/54/33 26/47/33 33/59/33 34/60/33
f 32/49/34 31/51/34 38/56/34 39/61/34
f 30/50/35 29/53/35 36/58/35 37/55/35
f 28/52/36 27/54/36 34/60/36 35/57/36
f 26/47/37 10/62/37 33/59/37
f 25/63/38 32/49/38 39/61/38
f 39/61/39 38/56/39 45/64/39 46/65/39
f 37/55/40 36/58/40 43/66/40 44/67/40
f 35/57/41 34/60/41 41/68/41 42/69/41
f 33/59/42 10/70/42 40/71/42
f 25/72/43 39/61/43 46/65/43
f 38/56/44 37/55/44 44/67/44 45/64/44
f 36/58/45 35/57/45 42/69/45 43/66/45
f 34/60/46 33/59/46 40/71/46 41/68/46
f 44/67/47 43/66/47 50/73/47 51/74/47
f 42/69/48 41/68/48 48/75/48 49/76/48
f 40/71/49 10/77/49 47/78/49
f 25/79/50 46/65/50 53/80/50
f 45/64/51 44/67/51 51/74/51 52/81/51
f 43/66/52 42/69/52 49/76/52 50/73/52
f 41/68/53 40/71/53 47/78/53 48/75/53
f 46/65/54 45/64/54 52/81/54 53/80/54
f 25/82/55 53/83/55 60/84/55
f 52/85/56 51/86/56 58/87/56 59/88/56
f 50/89/57 49/90/57 56/91/57 57/92/57
f 48/93/58 47/94/58 54/95/58 55/96/58
f 53/83/59 52/85/59 59/88/59 60/84/59
f 51/86/60 50/89/60 57/92/60 58/87/60
f 49/90/61 48/93/61 55/96/61 56/91/61
f 47/94/62 10/97/62 54/95/62
f 57/92/63 56/91/63 63/22/63 9/21/63
f 55/96/64 54/95/64 61/26/64 62/25/64
f 60/84/65 59/88/65 65/30/65 66/29/65
f 58/87/66 57/92/66 9/21/66 64/33/66
f 56/91/67 55/96/67 62/25/67 63/22/67
f 54/95/68 10/98/68 61/26/68
f 25/99/69 60/84/69 66/29/69
f 59/88/70 58/87/70 64/33/70 65/30/70
