# Blender v2.80 (sub 43) OBJ File: 'double.blend'
# www.blender.org
mtllib double.mtl
o Sphere.001
v -0.500000 -0.000000 0.500000
v -0.000000 0.500000 0.500000
v -0.135299 0.461940 0.364701
v -0.250000 0.353553 0.250000
v -0.326641 0.191342 0.173359
v -0.353553 -0.000000 0.146447
v -0.326641 -0.191342 0.173359
v -0.250000 -0.353553 0.250000
v -0.135299 -0.461940 0.364701
v -0.000000 0.461940 0.308658
v -0.000000 0.353553 0.146447
v -0.000000 0.191342 0.038060
v -0.000000 -0.000000 0.000000
v -0.000000 -0.191342 0.038060
v -0.000000 -0.353553 0.146447
v -0.000000 -0.461940 0.308658
v -0.000000 -0.500000 0.500000
v 0.135299 0.461940 0.364701
v 0.250000 0.353553 0.250000
v 0.326641 0.191342 0.173359
v 0.353553 -0.000000 0.146447
v 0.326641 -0.191342 0.173359
v 0.250000 -0.353553 0.250000
v 0.135299 -0.461940 0.364701
v 0.191342 0.461940 0.500000
v 0.353553 0.353553 0.500000
v 0.461940 0.191342 0.500000
v 0.500000 -0.000000 0.500000
v 0.461940 -0.191342 0.500000
v 0.353553 -0.353553 0.500000
v 0.191342 -0.461940 0.500000
v 0.135299 0.461940 0.635299
v 0.250000 0.353553 0.750000
v 0.326641 0.191342 0.826641
v 0.353553 -0.000000 0.853553
v 0.326641 -0.191342 0.826641
v 0.250000 -0.353553 0.750000
v 0.135299 -0.461940 0.635299
v -0.000000 0.461940 0.691342
v -0.000000 0.353553 0.853553
v -0.000000 0.191342 0.961940
v -0.000000 -0.000000 1.000000
v -0.000000 -0.191342 0.961940
v -0.000000 -0.353553 0.853553
v -0.000000 -0.461940 0.691342
v -0.135299 0.461940 0.635299
v -0.250000 0.353553 0.750000
v -0.326641 0.191342 0.826641
v -0.353553 -0.000000 0.853553
v -0.326641 -0.191342 0.826641
v -0.250000 -0.353553 0.750000
v -0.135299 -0.461940 0.635299
v -0.191342 0.461940 0.500000
v -0.353553 0.353553 0.500000
v -0.461940 0.191342 0.500000
v -0.461940 -0.191342 0.500000
v -0.353553 -0.353553 0.500000
v -0.191342 -0.461940 0.500000
vt 0.750000 0.500000
vt 0.750000 0.625000
vt 0.625000 0.625000
vt 0.625000 0.500000
vt 0.750000 0.750000
vt 0.750000 0.875000
vt 0.625000 0.875000
vt 0.625000 0.750000
vt 0.750000 0.125000
vt 0.750000 0.250000
vt 0.625000 0.250000
vt 0.625000 0.125000
vt 0.750000 0.375000
vt 0.625000 0.375000
vt 0.687500 1.000000
vt 0.687500 0.000000
vt 0.500000 0.250000
vt 0.500000 0.125000
vt 0.500000 0.500000
vt 0.500000 0.375000
vt 0.500000 0.750000
vt 0.500000 0.625000
vt 0.562500 1.000000
vt 0.500000 0.875000
vt 0.562500 0.000000
vt 0.437500 1.000000
vt 0.375000 0.875000
vt 0.437500 0.000000
vt 0.375000 0.125000
vt 0.375000 0.375000
vt 0.375000 0.250000
vt 0.375000 0.625000
vt 0.375000 0.500000
vt 0.375000 0.750000
vt 0.250000 0.375000
vt 0.250000 0.250000
vt 0.250000 0.625000
vt 0.250000 0.500000
vt 0.250000 0.875000
vt 0.250000 0.750000
vt 0.250000 0.125000
vt 0.312500 1.000000
vt 0.312500 0.000000
vt 0.125000 0.250000
vt 0.125000 0.125000
vt 0.125000 0.500000
vt 0.125000 0.375000
vt 0.125000 0.750000
vt 0.125000 0.625000
vt 0.187500 1.000000
vt 0.125000 0.875000
vt 0.187500 0.000000
vt 0.000000 0.500000
vt 0.000000 0.375000
vt 0.000000 0.750000
vt 0.000000 0.625000
vt 0.062500 1.000000
vt 0.000000 0.875000
vt 0.062500 0.000000
vt 0.000000 0.125000
vt 0.000000 0.250000
vt 0.937500 0.000000
vt 1.000000 0.125000
vt 0.875000 0.125000
vt 1.000000 0.250000
vt 1.000000 0.375000
vt 0.875000 0.375000
vt 0.875000 0.250000
vt 1.000000 0.500000
vt 1.000000 0.625000
vt 0.875000 0.625000
vt 0.875000 0.500000
vt 1.000000 0.750000
vt 1.000000 0.875000
vt 0.875000 0.875000
vt 0.875000 0.750000
vt 0.937500 1.000000
vt 0.812500 1.000000
vt 0.812500 0.000000
vn -0.9087 0.1807 -0.3764
vn -0.5414 0.8103 -0.2243
vn -0.5414 -0.8103 -0.2243
vn -0.9087 -0.1807 -0.3764
vn -0.7862 0.5253 -0.3256
vn -0.1945 0.9776 -0.0805
vn -0.1945 -0.9776 -0.0805
vn -0.7862 -0.5253 -0.3256
vn -0.2243 -0.8103 -0.5414
vn -0.3764 -0.1807 -0.9087
vn -0.3256 0.5253 -0.7862
vn -0.0805 0.9776 -0.1945
vn -0.0805 -0.9776 -0.1945
vn -0.3256 -0.5253 -0.7862
vn -0.3764 0.1807 -0.9087
vn -0.2243 0.8103 -0.5414
vn 0.0805 0.9776 -0.1945
vn 0.0805 -0.9776 -0.1945
vn 0.3256 -0.5253 -0.7862
vn 0.3764 0.1807 -0.9087
vn 0.2243 0.8103 -0.5414
vn 0.2243 -0.8103 -0.5414
vn 0.3764 -0.1807 -0.9087
vn 0.3256 0.5253 -0.7862
vn 0.7862 -0.5253 -0.3256
vn 0.9087 0.1807 -0.3764
vn 0.5414 0.8103 -0.2243
vn 0.5414 -0.8103 -0.2243
vn 0.9087 -0.1807 -0.3764
vn 0.7862 0.5253 -0.3256
vn 0.1945 0.9776 -0.0805
vn 0.1945 -0.9776 -0.0805
vn 0.5414 -0.8103 0.2243
vn 0.9087 -0.1807 0.3764
vn 0.7862 0.5253 0.3256
vn 0.1945 0.9776 0.0805
vn 0.1945 -0.9776 0.0805
vn 0.7862 -0.5253 0.3256
vn 0.9087 0.1807 0.3764
vn 0.5414 0.8103 0.2243
vn 0.3764 -0.1807 0.9087
vn 0.3256 0.5253 0.7862
vn 0.0805 0.9776 0.1945
vn 0.0805 -0.9776 0.1945
vn 0.3256 -0.5253 0.7862
vn 0.3764 0.1807 0.9087
vn 0.2243 0.8103 0.5414
vn 0.2243 -0.8103 0.5414
vn -0.0805 -0.9776 0.1945
vn -0.3256 -0.5253 0.7862
vn -0.3764 0.1807 0.9087
vn -0.2243 0.8103 0.5414
vn -0.2243 -0.8103 0.5414
vn -0.3764 -0.1807 0.9087
vn -0.3256 0.5253 0.7862
vn -0.0805 0.9776 0.1945
vn -0.9087 0.1807 0.3764
vn -0.5414 0.8103 0.2243
vn -0.5414 -0.8103 0.2243
vn -0.9087 -0.1807 0.3764
vn -0.7862 0.5253 0.3256
vn -0.1945 0.9776 0.0805
vn -0.1945 -0.9776 0.0805
vn -0.7862 -0.5253 0.3256
usemtl Material
s off
f 1/1/1 55/2/1 5/3/1 6/4/1
f 54/5/2 53/6/2 3/7/2 4/8/2
f 58/9/3 57/10/3 8/11/3 9/12/3
f 56/13/4 1/1/4 6/4/4 7/14/4
f 55/2/5 54/5/5 4/8/5 5/3/5
f 53/6/6 2/15/6 3/7/6
f 17/16/7 58/9/7 9/12/7
f 57/10/8 56/13/8 7/14/8 8/11/8
f 9/12/9 8/11/9 15/17/9 16/18/9
f 7/14/10 6/4/10 13/19/10 14/20/10
f 5/3/11 4/8/11 11/21/11 12/22/11
f 3/7/12 2/23/12 10/24/12
f 17/25/13 9/12/13 16/18/13
f 8/11/14 7/14/14 14/20/14 15/17/14
f 6/4/15 5/3/15 12/22/15 13/19/15
f 4/8/16 3/7/16 10/24/16 11/21/16
f 10/24/17 2/26/17 18/27/17
f 17/28/18 16/18/18 24/29/18
f 15/17/19 14/20/19 22/30/19 23/31/19
f 13/19/20 12/22/20 20/32/20 21/33/20
f 11/21/21 10/24/21 18/27/21 19/34/21
f 16/18/22 15/17/22 23/31/22 24/29/22
f 14/20/23 13/19/23 21/33/23 22/30/23
f 12/22/24 11/21/24 19/34/24 20/32/24
f 23/31/25 22/30/25 29/35/25 30/36/25
f 21/33/26 20/32/26 27/37/26 28/38/26
f 19/34/27 18/27/27 25/39/27 26/40/27
f 24/29/28 23/31/28 30/36/28 31/41/28
f 22/30/29 21/33/29 28/38/29 29/35/29
f 20/32/30 19/34/30 26/40/30 27/37/30
f 18/27/31 2/42/31 25/39/31
f 17/43/32 24/29/32 31/41/32
f 31/41/33 30/36/33 37/44/33 38/45/33
f 29/35/34 28/38/34 35/46/34 36/47/34
f 27/37/35 26/40/35 33/48/35 34/49/35
f 25/39/36 2/50/36 32/51/36
f 17/52/37 31/41/37 38/45/37
f 30/36/38 29/35/38 36/47/38 37/44/38
f 28/38/39 27/37/39 34/49/39 35/46/39
f 26/40/40 25/39/40 32/51/40 33/48/40
f 36/47/41 35/46/41 42/53/41 43/54/41
f 34/49/42 33/48/42 40/55/42 41/56/42
f 32/51/43 2/57/43 39/58/43
f 17/59/44 38/45/44 45/60/44
f 37/44/45 36/47/45 43/54/45 44/61/45
f 35/46/46 34/49/46 41/56/46 42/53/46
f 33/48/47 32/51/47 39/58/47 40/55/47
f 38/45/48 37/44/48 44/61/48 45/60/48
f 17/62/49 45/63/49 52/64/49
f 44/65/50 43/66/50 50/67/50 51/68/50
f 42/69/51 41/70/51 48/71/51 49/72/51
f 40/73/52 39/74/52 46/75/52 47/76/52
f 45/63/53 44/65/53 51/68/53 52/64/53
f 43/66/54 42/69/54 49/72/54 50/67/54
f 41/70/55 40/73/55 47/76/55 48/71/55
f 39/74/56 2/77/56 46/75/56
f 49/72/57 48/71/57 55/2/57 1/1/57
f 47/76/58 46/75/58 53/6/58 54/5/58
f 52/64/59 51/68/59 57/10/59 58/9/59
f 50/67/60 49/72/60 1/1/60 56/13/60
f 48/71/61 47/76/61 54/5/61 55/2/61
f 46/75/62 2/78/62 53/6/62
f 17/79/63 52/64/63 58/9/63
f 51/68/64 50/67/64 56/13/64 57/10/64
o Sphere.000_Sphere.002
v -0.500000 -0.000000 -0.500000
v -0.000000 0.500000 -0.500000
v -0.135299 0.461940 -0.635299
v -0.250000 0.353553 -0.750000
v -0.326641 0.191342 -0.826641
v -0.353553 -0.000000 -0.853553
v -0.326641 -0.191342 -0.826641
v -0.250000 -0.353553 -0.750000
v -0.135299 -0.461940 -0.635299
v -0.000000 0.461940 -0.691342
v -0.000000 0.353553 -0.853553
v -0.000000 0.191342 -0.961940
v -0.000000 -0.000000 -1.000000
v -0.000000 -0.191342 -0.961940
v -0.000000 -0.353553 -0.853553
v -0.000000 -0.461940 -0.691342
v -0.000000 -0.500000 -0.500000
v 0.135299 0.461940 -0.635299
v 0.250000 0.353553 -0.750000
v 0.326641 0.191342 -0.826641
v 0.353553 -0.000000 -0.853553
v 0.326641 -0.191342 -0.826641
v 0.250000 -0.353553 -0.750000
v 0.135299 -0.461940 -0.635299
v 0.191342 0.461940 -0.500000
v 0.353553 0.353553 -0.500000
v 0.461940 0.191342 -0.500000
v 0.500000 -0.000000 -0.500000
v 0.461940 -0.191342 -0.500000
v 0.353553 -0.353553 -0.500000
v 0.191342 -0.461940 -0.500000
v 0.135299 0.461940 -0.364701
v 0.250000 0.353553 -0.250000
v 0.326641 0.191342 -0.173359
v 0.353553 -0.000000 -0.146447
v 0.326641 -0.191342 -0.173359
v 0.250000 -0.353553 -0.250000
v 0.135299 -0.461940 -0.364701
v -0.000000 0.461940 -0.308658
v -0.000000 0.353553 -0.146447
v -0.000000 0.191342 -0.038060
v -0.000000 -0.000000 -0.000000
v -0.000000 -0.191342 -0.038060
v -0.000000 -0.353553 -0.146447
v -0.000000 -0.461940 -0.308658
v -0.135299 0.461940 -0.364701
v -0.250000 0.353553 -0.250000
v -0.326641 0.191342 -0.173359
v -0.353553 -0.000000 -0.146447
v -0.326641 -0.191342 -0.173359
v -0.250000 -0.353553 -0.250000
v -0.135299 -0.461940 -0.364701
v -0.191342 0.461940 -0.500000
v -0.353553 0.353553 -0.500000
v -0.461940 0.191342 -0.500000
v -0.461940 -0.191342 -0.500000
v -0.353553 -0.353553 -0.500000
v -0.191342 -0.461940 -0.500000
vt 0.750000 0.500000
vt 0.750000 0.625000
vt 0.625000 0.625000
vt 0.625000 0.500000
vt 0.750000 0.750000
vt 0.750000 0.875000
vt 0.625000 0.875000
vt 0.625000 0.750000
vt 0.750000 0.125000
vt 0.750000 0.250000
vt 0.625000 0.250000
vt 0.625000 0.125000
vt 0.750000 0.375000
vt 0.625000 0.375000
vt 0.687500 1.000000
vt 0.687500 0.000000
vt 0.500000 0.250000
vt 0.500000 0.125000
vt 0.500000 0.500000
vt 0.500000 0.375000
vt 0.500000 0.750000
vt 0.500000 0.625000
vt 0.562500 1.000000
vt 0.500000 0.875000
vt 0.562500 0.000000
vt 0.437500 1.000000
vt 0.375000 0.875000
vt 0.437500 0.000000
vt 0.375000 0.125000
vt 0.375000 0.375000
vt 0.375000 0.250000
vt 0.375000 0.625000
vt 0.375000 0.500000
vt 0.375000 0.750000
vt 0.250000 0.375000
vt 0.250000 0.250000
vt 0.250000 0.625000
vt 0.250000 0.500000
vt 0.250000 0.875000
vt 0.250000 0.750000
vt 0.250000 0.125000
vt 0.312500 1.000000
vt 0.312500 0.000000
vt 0.125000 0.250000
vt 0.125000 0.125000
vt 0.125000 0.500000
vt 0.125000 0.375000
vt 0.125000 0.750000
vt 0.125000 0.625000
vt 0.187500 1.000000
vt 0.125000 0.875000
vt 0.187500 0.000000
vt 0.000000 0.500000
vt 0.000000 0.375000
vt 0.000000 0.750000
vt 0.000000 0.625000
vt 0.062500 1.000000
vt 0.000000 0.875000
vt 0.062500 0.000000
vt 0.000000 0.125000
vt 0.000000 0.250000
vt 0.937500 0.000000
vt 1.000000 0.125000
vt 0.875000 0.125000
vt 1.000000 0.250000
vt 1.000000 0.375000
vt 0.875000 0.375000
vt 0.875000 0.250000
vt 1.000000 0.500000
vt 1.000000 0.625000
vt 0.875000 0.625000
vt 0.875000 0.500000
vt 1.000000 0.750000
vt 1.000000 0.875000
vt 0.875000 0.875000
vt 0.875000 0.750000
vt 0.937500 1.000000
vt 0.812500 1.000000
vt 0.812500 0.000000
vn -0.9087 0.1807 -0.3764
vn -0.5414 0.8103 -0.2243
vn -0.5414 -0.8103 -0.2243
vn -0.9087 -0.1807 -0.3764
vn -0.7862 0.5253 -0.3256
vn -0.1945 0.9776 -0.0805
vn -0.1945 -0.9776 -0.0805
vn -0.7862 -0.5253 -0.3256
vn -0.2243 -0.8103 -0.5414
vn -0.3764 -0.1807 -0.9087
vn -0.3256 0.5253 -0.7862
vn -0.0805 0.9776 -0.1945
vn -0.0805 -0.9776 -0.1945
vn -0.3256 -0.5253 -0.7862
vn -0.3764 0.1807 -0.9087
vn -0.2243 0.8103 -0.5414
vn 0.0805 0.9776 -0.1945
vn 0.0805 -0.9776 -0.1945
vn 0.3256 -0.5253 -0.7862
vn 0.3764 0.1807 -0.9087
vn 0.2243 0.8103 -0.5414
vn 0.2243 -0.8103 -0.5414
vn 0.3764 -0.1807 -0.9087
vn 0.3256 0.5253 -0.7862
vn 0.7862 -0.5253 -0.3256
vn 0.9087 0.1807 -0.3764
vn 0.5414 0.8103 -0.2243
vn 0.5414 -0.8103 -0.2243
vn 0.9087 -0.1807 -0.3764
vn 0.7862 0.5253 -0.3256
vn 0.1945 0.9776 -0.0805
vn 0.1945 -0.9776 -0.0805
vn 0.5414 -0.8103 0.2243
vn 0.9087 -0.1807 0.3764
vn 0.7862 0.5253 0.3256
vn 0.1945 0.9776 0.0805
vn 0.1945 -0.9776 0.0805
vn 0.7862 -0.5253 0.3256
vn 0.9087 0.1807 0.3764
vn 0.5414 0.8103 0.2243
vn 0.3764 -0.1807 0.9087
vn 0.3256 0.5253 0.7862
vn 0.0805 0.9776 0.1945
vn 0.0805 -0.9776 0.1945
vn 0.3256 -0.5253 0.7862
vn 0.3764 0.1807 0.9087
vn 0.2243 0.8103 0.5414
vn 0.2243 -0.8103 0.5414
vn -0.0805 -0.9776 0.1945
vn -0.3256 -0.5253 0.7862
vn -0.3764 0.1807 0.9087
vn -0.2243 0.8103 0.5414
vn -0.2243 -0.8103 0.5414
vn -0.3764 -0.1807 0.9087
vn -0.3256 0.5253 0.7862
vn -0.0805 0.9776 0.1945
vn -0.9087 0.1807 0.3764
vn -0.5414 0.8103 0.2243
vn -0.5414 -0.8103 0.2243
vn -0.9087 -0.1807 0.3764
vn -0.7862 0.5253 0.3256
vn -0.1945 0.9776 0.0805
vn -0.1945 -0.9776 0.0805
vn -0.7862 -0.5253 0.3256
usemtl Material
s off
f 59/80/65 113/81/65 63/82/65 64/83/65
f 112/84/66 111/85/66 61/86/66 62/87/66
f 116/88/67 115/89/67 66/90/67 67/91/67
f 114/92/68 59/80/68 64/83/68 65/93/68
f 113/81/69 112/84/69 62/87/69 63/82/69
f 111/85/70 60/94/70 61/86/70
f 75/95/71 116/88/71 67/91/71
f 115/89/72 114/92/72 65/93/72 66/90/72
f 67/91/73 66/90/73 73/96/73 74/97/73
f 65/93/74 64/83/74 71/98/74 72/99/74
f 63/82/75 62/87/75 69/100/75 70/101/75
f 61/86/76 60/102/76 68/103/76
f 75/104/77 67/91/77 74/97/77
f 66/90/78 65/93/78 72/99/78 73/96/78
f 64/83/79 63/82/79 70/101/79 71/98/79
f 62/87/80 61/86/80 68/103/80 69/100/80
f 68/103/81 60/105/81 76/106/81
f 75/107/82 74/97/82 82/108/82
f 73/96/83 72/99/83 80/109/83 81/110/83
f 71/98/84 70/101/84 78/111/84 79/112/84
f 69/100/85 68/103/85 76/106/85 77/113/85
f 74/97/86 73/96/86 81/110/86 82/108/86
f 72/99/87 71/98/87 79/112/87 80/109/87
f 70/101/88 69/100/88 77/113/88 78/111/88
f 81/110/89 80/109/89 87/114/89 88/115/89
f 79/112/90 78/111/90 85/116/90 86/117/90
f 77/113/91 76/106/91 83/118/91 84/119/91
f 82/108/92 81/110/92 88/115/92 89/120/92
f 80/109/93 79/112/93 86/117/93 87/114/93
f 78/111/94 77/113/94 84/119/94 85/116/94
f 76/106/95 60/121/95 83/118/95
f 75/122/96 82/108/96 89/120/96
f 89/120/97 88/115/97 95/123/97 96/124/97
f 87/114/98 86/117/98 93/125/98 94/126/98
f 85/116/99 84/119/99 91/127/99 92/128/99
f 83/118/100 60/129/100 90/130/100
f 75/131/101 89/120/101 96/124/101
f 88/115/102 87/114/102 94/126/102 95/123/102
f 86/117/103 85/116/103 92/128/103 93/125/103
f 84/119/104 83/118/104 90/130/104 91/127/104
f 94/126/105 93/125/105 100/132/105 101/133/105
f 92/128/106 91/127/106 98/134/106 99/135/106
f 90/130/107 60/136/107 97/137/107
f 75/138/108 96/124/108 103/139/108
f 95/123/109 94/126/109 101/133/109 102/140/109
f 93/125/110 92/128/110 99/135/110 100/132/110
f 91/127/111 90/130/111 97/137/111 98/134/111
f 96/124/112 95/123/112 102/140/112 103/139/112
f 75/141/113 103/142/113 110/143/113
f 102/144/114 101/145/114 108/146/114 109/147/114
f 100/148/115 99/149/115 106/150/115 107/151/115
f 98/152/116 97/153/116 104/154/116 105/155/116
f 103/142/117 102/144/117 109/147/117 110/143/117
f 101/145/118 100/148/118 107/151/118 108/146/118
f 99/149/119 98/152/119 105/155/119 106/150/119
f 97/153/120 60/156/120 104/154/120
f 107/151/121 106/150/121 113/81/121 59/80/121
f 105/155/122 104/154/122 111/85/122 112/84/122
f 110/143/123 109/147/123 115/89/123 116/88/123
f 108/146/124 107/151/124 59/80/124 114/92/124
f 106/150/125 105/155/125 112/84/125 113/81/125
f 104/154/126 60/157/126 111/85/126
f 75/158/127 110/143/127 116/88/127
f 109/147/128 108/146/128 114/92/128 115/89/128
